# xmcd
#
# Track frame offsets: 
#        182
#        20735
#        39470
#        59045
#        80070
#
# Disc length: 1362 seconds
#
# Revision: 1
# Processed by: cddbd v1.5.2PL0 Copyright (c) Steve Scherf et al.
# Submitted via: ExactAudioCopy v0.99pb4
#
DISCID=42055005
DTITLE=The Roots - Silent Treatment
DYEAR=1995
DGENRE=Hip-Hop
TTITLE0=Silent Treatment (Radio Edit)
TTITLE1=Silent Treatment (Kelo's Mix - Clean)
TTITLE2=Silent Treatment (Da Beatminerz Mix - Clean)
TTITLE3=Silent Treatment (Black Thought's 87 You And Yours Mix - Clean
TTITLE3=)
TTITLE4=Silent Treatment (Question's Mix - Clean)
EXTD=
EXTT0=
EXTT1=
EXTT2=
EXTT3=
EXTT4=
PLAYORDER=
